<?xml version="1.0" standalone="no"?><!DOCTYPE svg PUBLIC "-//W3C//DTD SVG 1.1//EN" "http://www.w3.org/Graphics/SVG/1.1/DTD/svg11.dtd"><svg t="1759324256707" class="icon" viewBox="0 0 1024 1024" version="1.1" xmlns="http://www.w3.org/2000/svg" p-id="2673" xmlns:xlink="http://www.w3.org/1999/xlink" width="200" height="200"><path d="M989.866667 296.96v459.776a118.101333 118.101333 0 0 1-122.197334 113.664H156.330667A118.101333 118.101333 0 0 1 34.133333 756.736V267.264A118.101333 118.101333 0 0 1 156.330667 153.6h711.338666A118.101333 118.101333 0 0 1 989.866667 267.264z m-68.266667-15.701333v-13.994667a53.589333 53.589333 0 0 0-55.637333-51.541333H156.330667A53.589333 53.589333 0 0 0 102.4 267.264v14.336l409.6 267.264z m0 75.434666l-390.485333 254.976a34.133333 34.133333 0 0 1-38.229334 0L102.4 357.034667v399.701333a53.589333 53.589333 0 0 0 55.637333 51.541333h709.632A53.589333 53.589333 0 0 0 921.6 756.736z" fill="#39424B" p-id="2674"></path></svg>